<svg width="216" height="177" viewBox="0 0 216 177" fill="none" xmlns="http://www.w3.org/2000/svg">
<circle cx="48" cy="46" r="22" fill="#4294AA"/>
<circle cx="102" cy="26" r="26" fill="#F5BF45"/>
<circle cx="159" cy="34" r="22" fill="#EF859F"/>
<path d="M64.4866 69.5001C57.2866 71.5001 45.4866 80.6667 40.4866 85.0001C21.2866 77.8001 11.4955 59.6668 9 51.5001C4.2 45.9001 1.33333 50.5001 0.5 53.5001C2.5 76.3001 21.3244 92.3334 30.4866 97.5001C21.5001 113 18.5008 144 65.4866 166.5C69.4866 166.5 70.4866 164.167 70.4866 163V72.5001C69.6866 68.9001 66.1533 69.0001 64.4866 69.5001Z" fill="#4294AA"/>
<path d="M77.0156 167.5V67.0001C79 60.5 131.016 52.3001 131.016 61.5001V173C129.416 180.6 77.0156 175.5 77.0156 167.5Z" fill="#F5BF45"/>
<path d="M137.999 169V63C137.665 59.5 142.999 56 166.999 70C189.399 66.8 201.332 46 204.499 36C211.699 29.6 214.832 35 215.499 38.5C211.099 66.5 189.999 82.1667 179.999 86.5C189.199 107.7 180.499 131.667 174.999 141C174.199 145.8 174.665 148.333 174.999 149L186.499 170C187.699 172.4 185.665 172.333 184.499 172C165.699 162.8 158.999 162.833 157.999 164L143.499 172C139.899 173.6 138.332 170.667 137.999 169Z" fill="#EF859F"/>
<path d="M62.207 44C63.6668 50.8704 58.9733 57.8034 51.5781 59.5918C44.183 61.3799 36.8407 57.3573 35 50.5791L37.6094 49.9473C39.104 54.0525 43.1903 57 48 57C54.0751 57 59 52.299 59 46.5C59 45.9244 58.9488 45.36 58.8555 44.8096L62.207 44Z" fill="white"/>
<path d="M119.75 31C118.322 39.513 110.919 46 102 46C93.0811 46 85.6783 39.513 84.25 31H119.75Z" fill="white"/>
<path d="M145.071 28.4209C145.787 36.0388 152.2 42 160.005 42C166.318 42 171.719 38.1 173.933 32.5781C173.977 33.0462 174 33.5204 174 34C174 42.2843 167.284 49 159 49C150.716 49 144 42.2843 144 34C144 32.0284 144.38 30.1454 145.071 28.4209Z" fill="white"/>
</svg>
